<svg xmlns="http://www.w3.org/2000/svg" viewBox="0 0 32 32" fill="none">
  <rect width="32" height="32" rx="6" fill="#0164a3"/>
  <path d="M16 6C10.477 6 6 10.477 6 16s4.477 10 10 10 10-4.477 10-10S21.523 6 16 6zm0 2c4.411 0 8 3.589 8 8s-3.589 8-8 8-8-3.589-8-8 3.589-8 8-8z" fill="white" opacity="0.3"/>
  <path d="M16 8a8 8 0 0 1 6.928 4" stroke="white" stroke-width="2.5" stroke-linecap="round"/>
  <path d="M16 8a8 8 0 0 0-6.928 4" stroke="white" stroke-width="2.5" stroke-linecap="round" opacity="0.5"/>
  <circle cx="16" cy="16" r="3" fill="white"/>
</svg>
